<svg width="309" height="54" viewBox="0 0 309 54" fill="none" xmlns="http://www.w3.org/2000/svg">
<path d="M19.7168 43.6816C16.6895 43.6816 13.9551 43.1738 11.5137 42.1582C9.0918 41.1426 7.02148 39.6777 5.30273 37.7637C3.60352 35.8496 2.29492 33.5352 1.37695 30.8203C0.458984 28.1055 0 25.0488 0 21.6504V21.6211C0 17.168 0.800781 13.3301 2.40234 10.1074C4.00391 6.88477 6.2793 4.39453 9.22852 2.63672C12.1777 0.878906 15.6543 0 19.6582 0C22.9395 0 25.8105 0.585938 28.2715 1.75781C30.7324 2.91016 32.7441 4.49219 34.3066 6.50391C35.8691 8.51563 36.9434 10.8008 37.5293 13.3594L37.6465 13.8574H30.8789L30.7617 13.5352C29.8828 11.0938 28.4961 9.19922 26.6016 7.85156C24.7266 6.50391 22.4121 5.83008 19.6582 5.83008C16.9824 5.83008 14.668 6.45508 12.7148 7.70508C10.7812 8.95508 9.29688 10.7617 8.26172 13.125C7.22656 15.4688 6.70898 18.291 6.70898 21.5918V21.6211C6.70898 24.1406 7.01172 26.4062 7.61719 28.418C8.22266 30.4102 9.0918 32.1094 10.2246 33.5156C11.377 34.9219 12.7539 35.9961 14.3555 36.7383C15.957 37.4805 17.7637 37.8516 19.7754 37.8516C22.0605 37.8516 24.0723 37.4023 25.8105 36.5039C27.5684 35.6055 28.9355 34.3555 29.9121 32.7539C30.9082 31.1328 31.416 29.2578 31.4355 27.1289V26.4258H20.3613V21.0645H37.9395V25.4004C37.9395 28.252 37.5293 30.8105 36.709 33.0762C35.8887 35.3418 34.6875 37.2656 33.1055 38.8477C31.543 40.4297 29.6289 41.6309 27.3633 42.4512C25.1172 43.2715 22.5684 43.6816 19.7168 43.6816ZM43.8281 42.9785V0.703125H50.1855V17.2266H50.332C51.1328 15.4297 52.3438 14.043 53.9648 13.0664C55.6055 12.0703 57.5781 11.5723 59.8828 11.5723C62.0898 11.5723 64.0039 12.0898 65.625 13.125C67.2656 14.1406 68.5352 15.5762 69.4336 17.4316C70.3516 19.2871 70.8105 21.4551 70.8105 23.9355V42.9785H64.4531V25.1367C64.4531 22.5781 63.8379 20.5859 62.6074 19.1602C61.377 17.7344 59.6484 17.0215 57.4219 17.0215C55.9766 17.0215 54.707 17.3633 53.6133 18.0469C52.5391 18.7305 51.6992 19.6777 51.0938 20.8887C50.4883 22.0996 50.1855 23.5156 50.1855 25.1367V42.9785H43.8281ZM85.9863 43.5352C83.9355 43.5352 82.1387 43.1445 80.5957 42.3633C79.0527 41.582 77.8516 40.4883 76.9922 39.082C76.1328 37.6758 75.7031 36.0547 75.7031 34.2188V34.1602C75.7031 32.3633 76.1523 30.8203 77.0508 29.5312C77.9492 28.2227 79.248 27.1875 80.9473 26.4258C82.666 25.6641 84.7363 25.2148 87.1582 25.0781L98.8184 24.375V28.8281L88.0078 29.502C86.1133 29.6191 84.6484 30.0781 83.6133 30.8789C82.5977 31.6602 82.0898 32.7051 82.0898 34.0137V34.0723C82.0898 35.4199 82.5977 36.4844 83.6133 37.2656C84.6484 38.0469 86.0156 38.4375 87.7148 38.4375C89.1992 38.4375 90.5273 38.1348 91.6992 37.5293C92.8906 36.9238 93.8281 36.0938 94.5117 35.0391C95.1953 33.9648 95.5371 32.7637 95.5371 31.4355V22.2656C95.5371 20.5664 95.0098 19.2383 93.9551 18.2812C92.9004 17.3047 91.3867 16.8164 89.4141 16.8164C87.5977 16.8164 86.1328 17.207 85.0195 17.9883C83.9258 18.7695 83.2422 19.7754 82.9688 21.0059L82.9102 21.2695H76.9336L76.9629 20.9473C77.1191 19.1699 77.7148 17.5781 78.75 16.1719C79.7852 14.7461 81.2207 13.623 83.0566 12.8027C84.8926 11.9824 87.0703 11.5723 89.5898 11.5723C92.1094 11.5723 94.2871 11.9922 96.123 12.832C97.959 13.6719 99.3848 14.8535 100.4 16.377C101.416 17.9004 101.924 19.6875 101.924 21.7383V42.9785H95.5371V38.1152H95.4199C94.8145 39.2285 94.0332 40.1953 93.0762 41.0156C92.1191 41.8164 91.0352 42.4414 89.8242 42.8906C88.6328 43.3203 87.3535 43.5352 85.9863 43.5352ZM111.621 53.2617C111.016 53.2617 110.41 53.2324 109.805 53.1738C109.199 53.1152 108.701 53.0469 108.311 52.9688V48.0176C108.545 48.0566 108.838 48.0957 109.189 48.1348C109.561 48.1934 109.961 48.2227 110.391 48.2227C111.895 48.2227 113.086 47.9688 113.965 47.4609C114.863 46.9531 115.566 45.957 116.074 44.4727L116.602 43.0078L105.381 12.1582H112.266L120.439 38.6133L119.326 37.2363H120.879L119.766 38.6133L127.969 12.1582H134.678L123.193 44.3848C122.432 46.5137 121.533 48.2324 120.498 49.541C119.482 50.8496 118.252 51.7969 116.807 52.3828C115.381 52.9688 113.652 53.2617 111.621 53.2617ZM146.748 43.5352C144.697 43.5352 142.9 43.1445 141.357 42.3633C139.814 41.582 138.613 40.4883 137.754 39.082C136.895 37.6758 136.465 36.0547 136.465 34.2188V34.1602C136.465 32.3633 136.914 30.8203 137.812 29.5312C138.711 28.2227 140.01 27.1875 141.709 26.4258C143.428 25.6641 145.498 25.2148 147.92 25.0781L159.58 24.375V28.8281L148.77 29.502C146.875 29.6191 145.41 30.0781 144.375 30.8789C143.359 31.6602 142.852 32.7051 142.852 34.0137V34.0723C142.852 35.4199 143.359 36.4844 144.375 37.2656C145.41 38.0469 146.777 38.4375 148.477 38.4375C149.961 38.4375 151.289 38.1348 152.461 37.5293C153.652 36.9238 154.59 36.0938 155.273 35.0391C155.957 33.9648 156.299 32.7637 156.299 31.4355V22.2656C156.299 20.5664 155.771 19.2383 154.717 18.2812C153.662 17.3047 152.148 16.8164 150.176 16.8164C148.359 16.8164 146.895 17.207 145.781 17.9883C144.688 18.7695 144.004 19.7754 143.73 21.0059L143.672 21.2695H137.695L137.725 20.9473C137.881 19.1699 138.477 17.5781 139.512 16.1719C140.547 14.7461 141.982 13.623 143.818 12.8027C145.654 11.9824 147.832 11.5723 150.352 11.5723C152.871 11.5723 155.049 11.9922 156.885 12.832C158.721 13.6719 160.146 14.8535 161.162 16.377C162.178 17.9004 162.686 19.6875 162.686 21.7383V42.9785H156.299V38.1152H156.182C155.576 39.2285 154.795 40.1953 153.838 41.0156C152.881 41.8164 151.797 42.4414 150.586 42.8906C149.395 43.3203 148.115 43.5352 146.748 43.5352ZM180.381 43.5938C177.803 43.5938 175.586 43.2031 173.73 42.4219C171.895 41.6211 170.449 40.5176 169.395 39.1113C168.34 37.6855 167.705 36.0352 167.49 34.1602L167.461 33.8965H173.73L173.789 34.1895C174.102 35.5957 174.795 36.6992 175.869 37.5C176.943 38.2812 178.447 38.6719 180.381 38.6719C181.67 38.6719 182.764 38.5156 183.662 38.2031C184.561 37.8711 185.254 37.4023 185.742 36.7969C186.23 36.1914 186.475 35.4688 186.475 34.6289V34.5996C186.475 33.6035 186.152 32.8027 185.508 32.1973C184.863 31.5918 183.711 31.084 182.051 30.6738L177.012 29.5312C175.059 29.082 173.428 28.4668 172.119 27.6855C170.83 26.9043 169.863 25.9473 169.219 24.8145C168.574 23.6816 168.252 22.373 168.252 20.8887V20.8594C168.252 19.0039 168.75 17.3828 169.746 15.9961C170.742 14.5898 172.139 13.5059 173.936 12.7441C175.732 11.9629 177.812 11.5723 180.176 11.5723C182.598 11.5723 184.688 11.9824 186.445 12.8027C188.203 13.623 189.57 14.7461 190.547 16.1719C191.543 17.5781 192.09 19.1504 192.188 20.8887V21.2402H186.24L186.211 21.0352C186.035 19.6875 185.43 18.5938 184.395 17.7539C183.359 16.8945 181.953 16.4648 180.176 16.4648C179.043 16.4648 178.057 16.6309 177.217 16.9629C176.377 17.2949 175.732 17.7734 175.283 18.3984C174.834 19.0039 174.609 19.7168 174.609 20.5371V20.5664C174.609 21.1914 174.756 21.7578 175.049 22.2656C175.361 22.7734 175.859 23.2129 176.543 23.584C177.227 23.9551 178.105 24.2676 179.18 24.5215L184.219 25.6934C187.363 26.416 189.59 27.4414 190.898 28.7695C192.227 30.0781 192.891 31.8457 192.891 34.0723V34.1016C192.891 35.9766 192.354 37.627 191.279 39.0527C190.205 40.4785 188.721 41.5918 186.826 42.3926C184.951 43.1934 182.803 43.5938 180.381 43.5938ZM201.885 42.9785V6.38672H188.965V0.703125H221.396V6.38672H208.477V42.9785H201.885ZM231.592 43.5938C228.584 43.5938 225.986 42.9492 223.799 41.6602C221.631 40.3516 219.961 38.5059 218.789 36.123C217.637 33.7207 217.061 30.8984 217.061 27.6562V27.627C217.061 24.4238 217.646 21.6211 218.818 19.2188C219.99 16.7969 221.641 14.9219 223.77 13.5938C225.898 12.2461 228.398 11.5723 231.27 11.5723C234.16 11.5723 236.641 12.2168 238.711 13.5059C240.801 14.7754 242.412 16.582 243.545 18.9258C244.678 21.25 245.244 23.9551 245.244 27.041V29.1797H220.195V24.6973H242.168L239.033 28.8867V26.4258C239.033 24.2578 238.701 22.4609 238.037 21.0352C237.393 19.5898 236.484 18.5156 235.312 17.8125C234.16 17.1094 232.822 16.7578 231.299 16.7578C229.795 16.7578 228.447 17.1289 227.256 17.8711C226.064 18.6133 225.127 19.707 224.443 21.1523C223.76 22.5781 223.418 24.3359 223.418 26.4258V28.8867C223.418 30.8789 223.75 32.5879 224.414 34.0137C225.098 35.4199 226.064 36.5039 227.314 37.2656C228.564 38.0078 230.039 38.3789 231.738 38.3789C232.988 38.3789 234.092 38.1934 235.049 37.8223C236.006 37.4316 236.797 36.9238 237.422 36.2988C238.066 35.6543 238.516 34.9414 238.77 34.1602L238.857 33.9258H244.893L244.834 34.248C244.58 35.459 244.102 36.6211 243.398 37.7344C242.695 38.8477 241.777 39.8535 240.645 40.752C239.531 41.6309 238.213 42.3242 236.689 42.832C235.166 43.3398 233.467 43.5938 231.592 43.5938ZM263.379 43.5938C260.391 43.5938 257.793 42.9395 255.586 41.6309C253.398 40.3223 251.709 38.4668 250.518 36.0645C249.346 33.6621 248.76 30.8203 248.76 27.5391V27.5098C248.76 24.248 249.355 21.4258 250.547 19.043C251.758 16.6602 253.457 14.8242 255.645 13.5352C257.832 12.2266 260.391 11.5723 263.32 11.5723C265.957 11.5723 268.232 12.0801 270.146 13.0957C272.08 14.0918 273.594 15.4199 274.688 17.0801C275.781 18.7402 276.416 20.5371 276.592 22.4707L276.621 22.7051H270.557L270.498 22.4414C270.166 20.9375 269.404 19.6387 268.213 18.5449C267.041 17.4316 265.42 16.875 263.35 16.875C261.729 16.875 260.303 17.3145 259.072 18.1934C257.861 19.0527 256.914 20.2832 256.23 21.8848C255.566 23.4863 255.234 25.3809 255.234 27.5684V27.5977C255.234 29.8438 255.576 31.7676 256.26 33.3691C256.943 34.9512 257.891 36.1621 259.102 37.002C260.332 37.8418 261.768 38.2617 263.408 38.2617C265.361 38.2617 266.934 37.7539 268.125 36.7383C269.336 35.7031 270.137 34.3555 270.527 32.6953L270.557 32.4609H276.65V32.666C276.416 34.7168 275.713 36.5723 274.541 38.2324C273.389 39.873 271.855 41.1816 269.941 42.1582C268.047 43.1152 265.859 43.5938 263.379 43.5938ZM281.426 42.9785V0.703125H287.783V17.2266H287.93C288.73 15.4297 289.941 14.043 291.562 13.0664C293.203 12.0703 295.176 11.5723 297.48 11.5723C299.688 11.5723 301.602 12.0898 303.223 13.125C304.863 14.1406 306.133 15.5762 307.031 17.4316C307.949 19.2871 308.408 21.4551 308.408 23.9355V42.9785H302.051V25.1367C302.051 22.5781 301.436 20.5859 300.205 19.1602C298.975 17.7344 297.246 17.0215 295.02 17.0215C293.574 17.0215 292.305 17.3633 291.211 18.0469C290.137 18.7305 289.297 19.6777 288.691 20.8887C288.086 22.0996 287.783 23.5156 287.783 25.1367V42.9785H281.426Z" fill="url(#paint0_linear_3029_30)"/>
<defs>
<linearGradient id="paint0_linear_3029_30" x1="-2.37305" y1="-0.538451" x2="311.627" y2="44.4955" gradientUnits="userSpaceOnUse">
<stop stop-color="white"/>
<stop offset="0.819475" stop-color="#999999" stop-opacity="0.8"/>
</linearGradient>
</defs>
</svg>
